<?xml version="1.0" standalone="no"?><!DOCTYPE svg PUBLIC "-//W3C//DTD SVG 1.1//EN" "http://www.w3.org/Graphics/SVG/1.1/DTD/svg11.dtd"><svg t="1580125269008" class="icon" viewBox="0 0 1024 1024" version="1.1" xmlns="http://www.w3.org/2000/svg" p-id="16563" xmlns:xlink="http://www.w3.org/1999/xlink" width="200" height="200"><defs><style type="text/css"></style></defs><path d="M735.872 968.96H241.28c-112.256 0-203.264-91.008-203.264-203.264V271.104C38.016 158.848 129.024 67.84 241.28 67.84h494.592c112.256 0 203.264 91.008 203.264 203.264v494.592c0 112.256-91.008 203.264-203.264 203.264z" fill="#00A9FA" p-id="16564"></path><path d="M538.112 560.768L768 330.88c-5.504-3.328-11.776-4.736-18.304-4.736H227.84c-5.76 0-11.52 1.28-16.64 3.712l230.912 230.912c26.368 26.368 69.376 26.368 96 0zM192.384 346.752c-3.584 6.016-5.504 12.8-5.504 20.096v302.976c0 8.32 2.56 15.872 6.784 22.144l172.8-171.52-174.08-173.696z" fill="#FFFFFF" p-id="16565"></path><path d="M555.648 578.432c-17.408 17.664-40.704 27.392-65.664 27.392-24.832 0-48.256-9.856-65.92-27.392l-39.936-39.936-170.88 169.088c4.48 2.048 9.344 3.072 14.592 3.072h521.856c7.04 0 13.568-1.792 19.328-5.248L597.888 536.192l-42.24 42.24zM785.792 348.544L615.808 518.272l170.496 168.96c2.56-5.248 3.968-11.008 3.968-17.408V366.848c0-6.528-1.408-12.8-4.48-18.304z" fill="#FFFFFF" p-id="16566"></path></svg>